<svg width="22" height="22" viewBox="0 0 22 22" fill="none" xmlns="http://www.w3.org/2000/svg">
<path d="M1.88753 9.84615C1.25697 10.979 0.951934 12.2641 1.00615 13.5594C1.06037 14.8548 1.47172 16.1099 2.19474 17.186C2.3058 17.3538 2.3683 17.4836 2.34907 17.5707C2.32984 17.6577 1.77551 20.5452 1.77551 20.5452C1.76218 20.6128 1.76723 20.6827 1.79015 20.7476C1.81307 20.8126 1.85301 20.8702 1.9058 20.9144C1.97623 20.9705 2.06382 21.0007 2.15387 21C2.202 21.0001 2.24963 20.9903 2.29378 20.9711L4.99618 19.9134C5.18217 19.8401 5.38966 19.8436 5.5731 19.9231C6.48368 20.2779 7.49041 20.5 8.49762 20.5C9.84919 20.5014 11.177 20.1449 12.3462 19.4668M19.4135 14.1058C19.3654 13.9327 19.4712 13.6923 19.5721 13.5192C19.603 13.4677 19.6367 13.418 19.6731 13.3702C20.5367 12.0869 20.9986 10.5756 21 9.02884C21.0144 4.59615 17.2741 1 12.6491 1C8.61541 1 5.25003 3.74519 4.46156 7.38942C4.34361 7.92955 4.28397 8.48079 4.28368 9.03365C4.28368 13.4711 7.87983 17.1634 12.5048 17.1634C13.2404 17.1634 14.2308 16.9423 14.7741 16.7933C15.3173 16.6442 15.8558 16.4471 15.9952 16.3942C16.1381 16.3403 16.2896 16.3126 16.4423 16.3125C16.609 16.3119 16.7741 16.3445 16.9279 16.4086L19.6539 17.375C19.7136 17.4003 19.7768 17.4165 19.8414 17.4231C19.9434 17.4231 20.0412 17.3825 20.1133 17.3104C20.1855 17.2383 20.226 17.1405 20.226 17.0384C20.2226 16.9944 20.2146 16.9509 20.2019 16.9086L19.4135 14.1058Z" stroke="white" stroke-width="2" stroke-miterlimit="10" stroke-linecap="round"/>
</svg>
