<svg width="21" height="22" viewBox="0 0 21 22" fill="none" xmlns="http://www.w3.org/2000/svg">
<path d="M19.75 8.98077C19.75 11.1048 15.5508 12.8269 10.375 12.8269C5.19922 12.8269 1 11.1048 1 8.98077M19.75 13.1154C19.75 15.2394 15.5508 16.9615 10.375 16.9615C5.19922 16.9615 1 15.2394 1 13.1154M1 4.80962V17.1904C1 19.2942 5.19922 21 10.375 21C15.5508 21 19.75 19.2942 19.75 17.1904V4.80962M19.75 4.84615C19.75 6.97033 15.5527 8.69231 10.375 8.69231C5.19733 8.69231 1 6.97033 1 4.84615C1 2.72198 5.19733 1 10.375 1C15.5527 1 19.75 2.72198 19.75 4.84615Z" stroke="white" stroke-width="2" stroke-miterlimit="10" stroke-linecap="round"/>
</svg>
